<?xml version="1.0" standalone="no"?>
<!DOCTYPE svg PUBLIC "-//W3C//DTD SVG 20010904//EN"
 "http://www.w3.org/TR/2001/REC-SVG-20010904/DTD/svg10.dtd">
<svg version="1.0" xmlns="http://www.w3.org/2000/svg"
 width="909.000000pt" height="980.000000pt" viewBox="0 0 909.000000 980.000000"
 preserveAspectRatio="xMidYMid meet">

<g transform="translate(0.000000,980.000000) scale(0.100000,-0.100000)"
fill="#000000" stroke="none">
<path d="M4170 9485 l0 -75 -155 0 -155 0 0 -75 0 -75 -75 0 -74 0 -3 -152 -3
-153 -78 -3 -77 -3 2 -377 3 -377 78 -3 77 -3 0 -154 0 -155 75 0 75 0 0 -75
0 -75 75 0 75 0 0 -920 0 -920 -150 0 -150 0 0 -75 0 -75 -155 0 -155 0 0 -75
0 -75 -150 0 -149 0 -3 -77 -3 -78 -152 -3 -153 -3 0 -74 0 -75 -155 0 -155 0
0 -75 0 -75 -150 0 -149 0 -3 -77 -3 -78 -152 -3 -153 -3 0 -74 0 -75 -155 0
-155 0 0 -75 0 -75 -150 0 -150 0 0 -75 0 -75 -155 0 -155 0 0 -80 0 -80 -150
0 -149 0 -3 -72 -3 -73 -152 -3 -153 -3 0 -74 0 -75 -75 0 -75 0 0 -535 0
-535 75 0 75 0 0 -385 0 -385 155 0 155 0 0 -75 0 -75 150 0 150 0 0 -75 0
-75 155 0 155 0 0 -80 0 -80 153 0 152 0 0 -72 0 -73 153 -3 152 -3 0 -74 0
-75 155 0 155 0 0 -77 0 -78 150 2 150 2 0 -80 0 -79 155 0 155 0 0 -75 0 -74
153 -3 152 -3 3 -72 3 -73 149 0 150 0 0 -80 0 -80 155 0 155 0 0 -75 0 -75
150 0 150 0 0 -75 0 -75 155 0 155 0 0 -80 0 -80 228 2 227 3 3 78 3 77 149 0
150 0 1 68 c1 37 1 70 0 75 0 4 69 7 154 7 l155 0 0 75 0 74 153 3 152 3 3 78
3 77 149 0 150 0 0 75 0 75 155 0 155 0 0 75 0 74 153 3 152 3 3 78 3 78 149
-3 150 -3 0 78 0 77 155 0 155 0 0 75 0 75 150 0 150 0 0 75 0 75 155 0 155 0
0 80 0 80 155 0 155 0 0 75 0 75 150 0 150 0 0 75 0 75 155 0 155 0 0 385 0
385 75 0 75 0 0 535 0 535 -75 0 -75 0 0 75 0 75 -155 0 -155 0 0 75 0 75
-150 0 -149 0 -3 78 -3 77 -152 3 -153 3 0 74 0 75 -155 0 -155 0 0 75 0 75
-150 0 -150 0 0 75 0 75 -140 1 c-77 1 -146 2 -152 3 -9 1 -14 26 -16 79 l-3
77 -153 0 -153 0 0 73 1 72 -152 3 -152 3 0 74 0 74 -152 3 -153 3 -3 78 -3
77 -149 0 -150 0 0 75 0 75 -155 0 -155 0 0 75 0 75 -150 0 -150 0 0 920 0
920 75 0 75 0 0 75 0 75 75 0 75 0 0 155 0 155 75 0 75 0 0 380 0 379 -72 3
-73 3 -3 153 -3 152 -74 0 -75 0 0 75 0 75 -155 0 -155 0 0 75 0 75 -380 0
-380 0 0 -75z m910 -841 l0 -144 -144 0 c-122 0 -145 2 -150 16 -8 20 -8 222
0 251 6 21 12 23 133 25 69 2 134 1 144 -1 15 -3 17 -18 17 -147z m-1680
-4204 l0 -70 -75 0 -75 0 0 70 0 70 75 0 75 0 0 -70z m2441 66 c2 -2 2 -34 1
-70 l-4 -66 -69 0 -69 0 0 70 0 70 68 0 c38 0 71 -2 73 -4z m-2291 -215 c0
-38 -4 -71 -10 -73 -5 -1 -37 -1 -70 0 l-60 4 0 69 0 69 70 0 70 0 0 -69z
m2142 -1 l3 -70 -27 -1 c-16 -1 -47 -2 -70 -2 l-43 -2 -3 73 -3 72 70 0 69 0
4 -70z m-4145 -102 c-3 -8 -6 -5 -6 6 -1 11 2 17 5 13 3 -3 4 -12 1 -19z m656
-8 c-7 -28 -13 -25 -13 6 0 14 4 23 9 20 5 -3 7 -15 4 -26z m1807 -45 l0 -75
-225 0 -225 0 0 75 0 75 225 0 225 0 0 -75z m1530 0 l0 -75 -225 0 -225 0 0
75 0 75 225 0 225 0 0 -75z m1300 -25 l39 0 4 48 3 47 2 -54 c2 -46 4 -52 17
-41 11 9 15 9 15 1 0 -6 -10 -15 -22 -20 -32 -11 -118 -20 -118 -12 0 4 21 8
47 10 26 1 49 4 52 7 3 3 -64 8 -89 6 -3 0 -3 25 0 56 l5 57 3 -52 3 -53 39 0z
m-5405 48 l0 -43 50 -6 c31 -4 53 -2 57 5 5 7 8 4 8 -6 0 -10 -8 -18 -17 -19
-12 -1 -9 -4 7 -8 15 -5 -3 -7 -47 -7 l-73 1 0 63 c0 34 3 62 8 62 4 0 7 -19
7 -42z m92 5 c-3 -10 -5 -4 -5 12 0 17 2 24 5 18 2 -7 2 -21 0 -30z m720 15
c-3 -8 -6 -5 -6 6 -1 11 2 17 5 13 3 -3 4 -12 1 -19z m37 7 c-4 -8 -8 -15 -10
-15 -2 0 -4 7 -4 15 0 8 4 15 10 15 5 0 7 -7 4 -15z m36 -55 c0 -60 -2 -69
-14 -58 -8 7 -10 15 -6 18 4 3 7 29 6 58 0 28 2 52 7 52 4 0 7 -32 7 -70z
m5317 38 c-3 -7 -5 -2 -5 12 0 14 2 19 5 13 2 -7 2 -19 0 -25z m43 -18 c0 -27
-3 -50 -7 -50 -5 0 -6 22 -5 50 5 65 12 65 12 0z m-43 -46 c-3 -3 -12 -4 -19
-1 -8 3 -5 6 6 6 11 1 17 -2 13 -5z m-5377 -14 c23 -7 23 -8 3 -9 -12 -1 -23
-4 -26 -8 -2 -5 -2 -3 -1 4 2 6 -5 14 -14 16 -12 3 -13 5 -2 5 8 0 26 -4 40
-8z m5337 -5 c0 -10 -10 -15 -31 -14 -24 1 -26 3 -8 6 12 2 20 9 17 14 -4 5 0
9 8 9 7 0 14 -7 14 -15z m40 -1 c-3 -3 -12 -4 -19 -1 -8 3 -5 6 6 6 11 1 17
-2 13 -5z m43 -9 c0 -8 -2 -15 -4 -15 -2 0 -6 7 -10 15 -3 8 -1 15 4 15 6 0
10 -7 10 -15z m-770 1 c0 -3 -4 -8 -10 -11 -5 -3 -10 -1 -10 4 0 6 5 11 10 11
6 0 10 -2 10 -4z m-5330 -96 l-7 -75 -1 71 c-1 39 1 74 5 77 9 10 10 9 3 -73z
m3500 5 l0 -75 -530 0 -530 0 0 68 c0 38 3 72 6 75 4 3 242 6 530 7 l524 0 0
-75z m-2912 8 l-2 -58 -3 52 -4 53 -282 3 -282 2 288 3 287 2 -2 -57z m4769
-50 c-2 -21 -4 -4 -4 37 0 41 2 58 4 38 2 -21 2 -55 0 -75z m591 50 l-2 -58
-3 53 -4 52 -280 0 -279 0 -1 -32 c-1 -25 -3 -27 -6 -10 -10 53 -15 52 292 52
l285 0 -2 -57z m-5421 -49 c-3 -3 -12 -4 -19 -1 -8 3 -5 6 6 6 11 1 17 -2 13
-5z m63 -23 c0 -14 -557 -15 -565 -1 -4 7 87 10 279 10 173 0 286 -4 286 -9z
m5360 -1 c0 -12 -510 -12 -550 0 -14 5 104 8 263 9 190 1 287 -2 287 -9z
m-6890 -90 l0 -70 -150 0 -150 0 0 70 0 70 150 0 150 0 0 -70z m2450 0 l0 -70
-70 0 -70 0 0 70 0 70 70 0 70 0 0 -70z m3060 0 l0 -70 -69 0 -69 0 -4 70 -3
70 73 0 72 0 0 -70z m2600 -4 l0 -75 -145 0 -145 0 0 75 0 74 145 0 145 0 0
-74z m-7800 -151 l0 -75 -150 0 -150 0 0 75 0 75 150 0 150 0 0 -75z m2448 3
l-3 -73 -147 -3 -148 -3 0 76 0 75 150 0 151 0 -3 -72z m2602 -3 l0 -75 -150
0 -150 0 0 75 0 75 150 0 150 0 0 -75z m2450 0 l0 -74 -152 -3 -151 -3 2 -72
2 -73 -155 0 -156 0 0 -75 0 -75 -148 0 c-82 0 -151 2 -153 4 -2 2 -3 36 -1
75 3 66 5 71 25 70 12 -1 79 -1 150 -1 l127 2 0 75 0 75 155 0 155 0 0 75 0
75 150 0 150 0 0 -75z m-7190 -150 l0 -75 -150 0 -150 0 -1 55 c-1 30 -2 61
-3 68 -1 6 -1 15 1 20 2 4 71 7 154 7 l149 0 0 -75z m2600 0 l0 -75 -226 2
-226 3 0 63 c1 34 1 67 1 72 1 6 83 10 226 10 l225 0 0 -75z m1832 59 c2 -9 1
-43 0 -75 l-4 -59 -224 0 -224 0 0 75 0 75 224 0 c199 0 225 -2 228 -16z
m-4132 -215 l0 -69 -150 0 -150 0 0 70 0 69 138 3 c75 2 143 1 150 -1 8 -2 12
-25 12 -72z m3675 41 c3 -19 5 -52 3 -73 l-2 -37 -688 0 -688 0 0 65 c0 45 4
66 14 72 8 4 316 8 685 8 l670 0 6 -35z m-3365 -189 c0 -54 -4 -70 -16 -75 -9
-3 -76 -6 -150 -6 l-134 0 0 75 0 75 150 0 150 0 0 -69z m5660 -6 l0 -75 -150
0 -150 0 0 -75 0 -75 -155 0 -154 0 -3 -77 -3 -78 -150 -2 -149 -1 -3 -69 c-1
-37 -2 -71 -2 -75 -1 -5 -68 -8 -151 -8 l-150 0 0 -75 0 -75 -155 0 -155 0 0
-75 0 -74 -151 -3 -152 -3 -1 -75 -1 -75 -152 -3 -153 -3 0 -74 0 -75 -155 0
c-119 0 -155 -3 -154 -12 1 -7 1 -41 0 -75 l-1 -63 -150 0 -150 0 0 -75 0 -74
-77 -3 -78 -3 -5 -385 c-3 -212 -7 -376 -9 -365 -3 17 -4 18 -8 3 -5 -19 -23
-25 -23 -7 0 5 -6 7 -12 3 -7 -5 -30 -9 -50 -10 l-38 -2 -2 382 -3 381 -77 3
-78 3 0 74 0 75 -150 0 -150 0 0 75 0 75 150 0 150 0 0 -75 0 -75 230 0 230 0
0 75 0 74 152 3 152 3 1 75 0 75 150 2 150 1 3 76 3 76 153 0 154 0 -1 28 c0
15 1 48 2 75 l1 47 150 0 150 0 0 75 0 75 155 0 155 0 0 80 0 80 150 0 150 0
1 58 c1 31 2 64 3 72 1 12 27 16 151 20 l150 5 3 73 c2 60 6 72 20 72 9 1 79
1 155 0 l137 -1 0 76 0 75 150 0 150 0 0 -75z m-5355 -150 l0 -70 -152 -3
-153 -3 0 76 0 76 153 -3 152 -3 0 -70z m305 -150 l0 -75 -150 0 -150 0 0 75
0 75 150 0 150 0 0 -75z m310 -155 l0 -80 155 0 155 0 0 -75 0 -75 153 0 152
0 -3 -66 c-2 -36 1 -71 6 -76 5 -5 74 -10 153 -11 l144 -2 5 -75 5 -75 147 4
147 3 6 -24 c3 -13 5 -49 3 -79 l-3 -54 -152 -3 -153 -3 0 81 c0 59 -3 80 -12
79 -7 -1 -77 -1 -154 0 -128 1 -141 3 -141 19 0 9 -1 43 -2 75 l-1 57 -150 0
-150 0 0 75 0 75 -155 0 -155 0 0 75 0 75 -149 0 -149 0 -4 75 -3 74 80 4 c44
1 113 4 153 5 l72 2 0 -80z"/>
<path d="M5063 8700 c0 -36 2 -50 4 -32 2 17 2 47 0 65 -2 17 -4 3 -4 -33z"/>
<path d="M1430 4095 c0 -6 18 -9 48 -6 51 4 48 7 -10 13 -23 2 -38 0 -38 -7z"/>
</g>
</svg>
